{
    "asset" : {
        "generator" : "Khronos glTF Blender I/O v1.5.17",
        "version" : "2.0"
    },
    "scene" : 0,
    "scenes" : [
        {
            "name" : "Scene",
            "nodes" : [
                0
            ]
        }
    ],
    "nodes" : [
        {
            "mesh" : 0,
            "name" : "Cube.001",
            "rotation" : [
                0,
                -0.7071068286895752,
                0,
                0.7071068286895752
            ]
        }
    ],
    "materials" : [
        {
            "doubleSided" : true,
            "name" : "DestroyerMaterial",
            "pbrMetallicRoughness" : {
                "baseColorTexture" : {
                    "index" : 0
                },
                "metallicFactor" : 0,
                "roughnessFactor" : 0.5
            }
        },
        {
            "doubleSided" : true,
            "name" : "tuulilasi",
            "pbrMetallicRoughness" : {
                "baseColorFactor" : [
                    0.3613067865371704,
                    0.6938718557357788,
                    0.09989873319864273,
                    1
                ],
                "metallicFactor" : 0,
                "roughnessFactor" : 0.5
            }
        },
        {
            "doubleSided" : true,
            "name" : "moottori",
            "pbrMetallicRoughness" : {
                "baseColorFactor" : [
                    0.3564002215862274,
                    0.6866853833198547,
                    0.09758735448122025,
                    1
                ],
                "metallicFactor" : 0,
                "roughnessFactor" : 0.5
            }
        }
    ],
    "meshes" : [
        {
            "name" : "Cube.001",
            "primitives" : [
                {
                    "attributes" : {
                        "POSITION" : 0,
                        "NORMAL" : 1,
                        "TEXCOORD_0" : 2
                    },
                    "indices" : 3,
                    "material" : 0
                },
                {
                    "attributes" : {
                        "POSITION" : 4,
                        "NORMAL" : 5,
                        "TEXCOORD_0" : 6
                    },
                    "indices" : 7,
                    "material" : 1
                },
                {
                    "attributes" : {
                        "POSITION" : 8,
                        "NORMAL" : 9,
                        "TEXCOORD_0" : 10
                    },
                    "indices" : 11,
                    "material" : 2
                }
            ]
        }
    ],
    "textures" : [
        {
            "sampler" : 0,
            "source" : 0
        }
    ],
    "images" : [
        {
            "bufferView" : 4,
            "mimeType" : "image/png",
            "name" : "destroyer-texture"
        }
    ],
    "accessors" : [
        {
            "bufferView" : 0,
            "componentType" : 5126,
            "count" : 1828,
            "max" : [
                0.15166409313678741,
                0.07501699775457382,
                0.40033718943595886
            ],
            "min" : [
                -0.29999998211860657,
                -0.05000000074505806,
                -0.4006688594818115
            ],
            "type" : "VEC3"
        },
        {
            "bufferView" : 1,
            "componentType" : 5126,
            "count" : 1828,
            "type" : "VEC3"
        },
        {
            "bufferView" : 2,
            "componentType" : 5126,
            "count" : 1828,
            "type" : "VEC2"
        },
        {
            "bufferView" : 3,
            "componentType" : 5123,
            "count" : 2796,
            "type" : "SCALAR"
        },
        {
            "bufferView" : 5,
            "componentType" : 5126,
            "count" : 32,
            "max" : [
                -0.03284049034118652,
                0.07501699775457382,
                0.07722889631986618
            ],
            "min" : [
                -0.16642022132873535,
                0.04573066160082817,
                -0.07722889631986618
            ],
            "type" : "VEC3"
        },
        {
            "bufferView" : 6,
            "componentType" : 5126,
            "count" : 32,
            "type" : "VEC3"
        },
        {
            "bufferView" : 7,
            "componentType" : 5126,
            "count" : 32,
            "type" : "VEC2"
        },
        {
            "bufferView" : 8,
            "componentType" : 5123,
            "count" : 48,
            "type" : "SCALAR"
        },
        {
            "bufferView" : 9,
            "componentType" : 5126,
            "count" : 47,
            "max" : [
                0.13166408240795135,
                0.017097298055887222,
                0.13480739295482635
            ],
            "min" : [
                0.07384522259235382,
                -0.022548934444785118,
                -0.13482919335365295
            ],
            "type" : "VEC3"
        },
        {
            "bufferView" : 10,
            "componentType" : 5126,
            "count" : 47,
            "type" : "VEC3"
        },
        {
            "bufferView" : 11,
            "componentType" : 5126,
            "count" : 47,
            "type" : "VEC2"
        },
        {
            "bufferView" : 12,
            "componentType" : 5123,
            "count" : 72,
            "type" : "SCALAR"
        }
    ],
    "bufferViews" : [
        {
            "buffer" : 0,
            "byteLength" : 21936,
            "byteOffset" : 0
        },
        {
            "buffer" : 0,
            "byteLength" : 21936,
            "byteOffset" : 21936
        },
        {
            "buffer" : 0,
            "byteLength" : 14624,
            "byteOffset" : 43872
        },
        {
            "buffer" : 0,
            "byteLength" : 5592,
            "byteOffset" : 58496
        },
        {
            "buffer" : 0,
            "byteLength" : 63340,
            "byteOffset" : 64088
        },
        {
            "buffer" : 0,
            "byteLength" : 384,
            "byteOffset" : 127428
        },
        {
            "buffer" : 0,
            "byteLength" : 384,
            "byteOffset" : 127812
        },
        {
            "buffer" : 0,
            "byteLength" : 256,
            "byteOffset" : 128196
        },
        {
            "buffer" : 0,
            "byteLength" : 96,
            "byteOffset" : 128452
        },
        {
            "buffer" : 0,
            "byteLength" : 564,
            "byteOffset" : 128548
        },
        {
            "buffer" : 0,
            "byteLength" : 564,
            "byteOffset" : 129112
        },
        {
            "buffer" : 0,
            "byteLength" : 376,
            "byteOffset" : 129676
        },
        {
            "buffer" : 0,
            "byteLength" : 144,
            "byteOffset" : 130052
        }
    ],
    "samplers" : [
        {
            "magFilter" : 9729,
            "minFilter" : 9987
        }
    ],
    "buffers" : [
        {
            "byteLength" : 130196,
            "uri" : "data:application/octet-stream;base64,"
        }
    ]
}
