{
    "asset" : {
        "generator" : "Khronos glTF Blender I/O v1.5.17",
        "version" : "2.0"
    },
    "scene" : 0,
    "scenes" : [
        {
            "name" : "Scene",
            "nodes" : [
                0
            ]
        }
    ],
    "nodes" : [
        {
            "mesh" : 0,
            "name" : "Cylinder",
            "rotation" : [
                0.7071068286895752,
                0,
                0,
                0.7071068286895752
            ],
            "scale" : [
                0.025836560875177383,
                0.025836560875177383,
                0.025836560875177383
            ]
        }
    ],
    "materials" : [
        {
            "doubleSided" : true,
            "name" : "musta",
            "pbrMetallicRoughness" : {
                "baseColorFactor" : [
                    0.003095456399023533,
                    0.003095456399023533,
                    0.003095456399023533,
                    1
                ],
                "metallicFactor" : 0,
                "roughnessFactor" : 0.5
            }
        },
        {
            "doubleSided" : true,
            "name" : "moottori",
            "pbrMetallicRoughness" : {
                "baseColorFactor" : [
                    0.17781630158424377,
                    0.398939847946167,
                    0.9258264303207397,
                    1
                ],
                "metallicFactor" : 0,
                "roughnessFactor" : 0.5
            }
        },
        {
            "doubleSided" : true,
            "name" : "runko",
            "pbrMetallicRoughness" : {
                "baseColorFactor" : [
                    0.6500054597854614,
                    0.3237568736076355,
                    0.018783049657940865,
                    1
                ],
                "metallicFactor" : 0,
                "roughnessFactor" : 0.4000000059604645
            }
        },
        {
            "doubleSided" : true,
            "name" : "lasi",
            "pbrMetallicRoughness" : {
                "baseColorFactor" : [
                    0.4418730139732361,
                    0.6961004734039307,
                    0.9258264303207397,
                    1
                ],
                "metallicFactor" : 0,
                "roughnessFactor" : 0.5
            }
        }
    ],
    "meshes" : [
        {
            "name" : "Cylinder",
            "primitives" : [
                {
                    "attributes" : {
                        "POSITION" : 0,
                        "NORMAL" : 1,
                        "TEXCOORD_0" : 2
                    },
                    "indices" : 3,
                    "material" : 0
                },
                {
                    "attributes" : {
                        "POSITION" : 4,
                        "NORMAL" : 5,
                        "TEXCOORD_0" : 6
                    },
                    "indices" : 7,
                    "material" : 1
                },
                {
                    "attributes" : {
                        "POSITION" : 8,
                        "NORMAL" : 9,
                        "TEXCOORD_0" : 10
                    },
                    "indices" : 11,
                    "material" : 2
                },
                {
                    "attributes" : {
                        "POSITION" : 12,
                        "NORMAL" : 13,
                        "TEXCOORD_0" : 14
                    },
                    "indices" : 15,
                    "material" : 3
                }
            ]
        }
    ],
    "accessors" : [
        {
            "bufferView" : 0,
            "componentType" : 5126,
            "count" : 2220,
            "max" : [
                4.488003730773926,
                10.41148853302002,
                1.8545526266098022
            ],
            "min" : [
                -4.456462383270264,
                -12.336603164672852,
                -2.594038724899292
            ],
            "type" : "VEC3"
        },
        {
            "bufferView" : 1,
            "componentType" : 5126,
            "count" : 2220,
            "type" : "VEC3"
        },
        {
            "bufferView" : 2,
            "componentType" : 5126,
            "count" : 2220,
            "type" : "VEC2"
        },
        {
            "bufferView" : 3,
            "componentType" : 5123,
            "count" : 3462,
            "type" : "SCALAR"
        },
        {
            "bufferView" : 4,
            "componentType" : 5126,
            "count" : 240,
            "max" : [
                4.171711444854736,
                10.261223793029785,
                1.1941421031951904
            ],
            "min" : [
                -4.140169620513916,
                9.579630851745605,
                -1.0938870906829834
            ],
            "type" : "VEC3"
        },
        {
            "bufferView" : 5,
            "componentType" : 5126,
            "count" : 240,
            "type" : "VEC3"
        },
        {
            "bufferView" : 6,
            "componentType" : 5126,
            "count" : 240,
            "type" : "VEC2"
        },
        {
            "bufferView" : 7,
            "componentType" : 5123,
            "count" : 414,
            "type" : "SCALAR"
        },
        {
            "bufferView" : 8,
            "componentType" : 5126,
            "count" : 184,
            "max" : [
                15.015416145324707,
                8.679561614990234,
                1.5091649293899536
            ],
            "min" : [
                -15.048030853271484,
                -12.336603164672852,
                -2.7059528827667236
            ],
            "type" : "VEC3"
        },
        {
            "bufferView" : 9,
            "componentType" : 5126,
            "count" : 184,
            "type" : "VEC3"
        },
        {
            "bufferView" : 10,
            "componentType" : 5126,
            "count" : 184,
            "type" : "VEC2"
        },
        {
            "bufferView" : 11,
            "componentType" : 5123,
            "count" : 276,
            "type" : "SCALAR"
        },
        {
            "bufferView" : 12,
            "componentType" : 5126,
            "count" : 16,
            "max" : [
                2.9698517322540283,
                -0.8798837661743164,
                -0.5142036080360413
            ],
            "min" : [
                -2.94744873046875,
                -12.003030776977539,
                -2.402301073074341
            ],
            "type" : "VEC3"
        },
        {
            "bufferView" : 13,
            "componentType" : 5126,
            "count" : 16,
            "type" : "VEC3"
        },
        {
            "bufferView" : 14,
            "componentType" : 5126,
            "count" : 16,
            "type" : "VEC2"
        },
        {
            "bufferView" : 15,
            "componentType" : 5123,
            "count" : 24,
            "type" : "SCALAR"
        }
    ],
    "bufferViews" : [
        {
            "buffer" : 0,
            "byteLength" : 26640,
            "byteOffset" : 0
        },
        {
            "buffer" : 0,
            "byteLength" : 26640,
            "byteOffset" : 26640
        },
        {
            "buffer" : 0,
            "byteLength" : 17760,
            "byteOffset" : 53280
        },
        {
            "buffer" : 0,
            "byteLength" : 6924,
            "byteOffset" : 71040
        },
        {
            "buffer" : 0,
            "byteLength" : 2880,
            "byteOffset" : 77964
        },
        {
            "buffer" : 0,
            "byteLength" : 2880,
            "byteOffset" : 80844
        },
        {
            "buffer" : 0,
            "byteLength" : 1920,
            "byteOffset" : 83724
        },
        {
            "buffer" : 0,
            "byteLength" : 828,
            "byteOffset" : 85644
        },
        {
            "buffer" : 0,
            "byteLength" : 2208,
            "byteOffset" : 86472
        },
        {
            "buffer" : 0,
            "byteLength" : 2208,
            "byteOffset" : 88680
        },
        {
            "buffer" : 0,
            "byteLength" : 1472,
            "byteOffset" : 90888
        },
        {
            "buffer" : 0,
            "byteLength" : 552,
            "byteOffset" : 92360
        },
        {
            "buffer" : 0,
            "byteLength" : 192,
            "byteOffset" : 92912
        },
        {
            "buffer" : 0,
            "byteLength" : 192,
            "byteOffset" : 93104
        },
        {
            "buffer" : 0,
            "byteLength" : 128,
            "byteOffset" : 93296
        },
        {
            "buffer" : 0,
            "byteLength" : 48,
            "byteOffset" : 93424
        }
    ],
    "buffers" : [
        {
            "byteLength" : 93472,
            "uri" : "data:application/octet-stream;base64,"
        }
    ]
}
